<?xml version="1.0" encoding="utf-8"?>
<!-- Generator: Adobe Illustrator 28.1.0, SVG Export Plug-In . SVG Version: 6.00 Build 0)  -->
<svg version="1.1" id="Layer_1" xmlns="http://www.w3.org/2000/svg" xmlns:xlink="http://www.w3.org/1999/xlink" x="0px" y="0px"
	 viewBox="0 0 217 63" style="enable-background:new 0 0 217 63;" xml:space="preserve">
<style type="text/css">
	.st0{clip-path:url(#SVGID_00000148652110628175019780000016492221101234768044_);}
	.st1{fill:#FFFFFF;filter:url(#Adobe_OpacityMaskFilter);}
	.st2{mask:url(#mask0_7_145_00000066481927777997967160000004611938636724103852_);}
	.st3{fill:#FFFFFF;}
	.st4{fill:#4178FB;}
</style>
<g>
	<defs>
		<rect id="SVGID_1_" width="217" height="63"/>
	</defs>
	<clipPath id="SVGID_00000013180916509727143200000015019831354553696663_">
		<use xlink:href="#SVGID_1_"  style="overflow:visible;"/>
	</clipPath>
	<g style="clip-path:url(#SVGID_00000013180916509727143200000015019831354553696663_);">
		<defs>
			<filter id="Adobe_OpacityMaskFilter" filterUnits="userSpaceOnUse" x="0" y="0" width="217" height="63">
				<feColorMatrix  type="matrix" values="1 0 0 0 0  0 1 0 0 0  0 0 1 0 0  0 0 0 1 0"/>
			</filter>
		</defs>
		
			<mask maskUnits="userSpaceOnUse" x="0" y="0" width="217" height="63" id="mask0_7_145_00000066481927777997967160000004611938636724103852_">
			<path class="st1" d="M217,0H0v63h217V0z"/>
		</mask>
		<g class="st2">
			<path class="st3" d="M127.1,44c-2.4,0-4.3,1.4-5.2,3.5c-0.9-2.2-2.8-3.5-5.4-3.5c-2,0-3.9,1.2-4.9,3.1l-0.2-2.8h-3.6v18.4h4v-9.4
				c0-3.6,1.5-5.4,3.6-5.4c2,0,3.6,1.5,3.6,5v9.7h4V53c0-3.5,1.6-5,3.6-5c2,0,3.6,1.6,3.6,5v9.7h4V53C133.9,46.8,131.3,44,127.1,44"
				/>
			<path class="st3" d="M150.1,53.6c0,3.6-1.8,5.4-4.4,5.4c-2.5,0-4.4-1.8-4.4-5.4v-9.4h-4v9.4c0,6.2,2.9,9.3,7.4,9.3
				c2.4,0,4.4-1.3,5.4-3.2l0.2,3h3.6V44.3h-4L150.1,53.6L150.1,53.6z"/>
			<path class="st3" d="M166.6,44c-2.6,0-4.8,0.9-6.6,2.8c-1.8,1.8-2.7,4.1-2.7,6.6c0,5.3,4.2,9.5,9.8,9.5c3.1,0,6.2-1.4,7.9-3.7
				l-3.2-2c-1.2,1.3-2.8,2-4.8,2c-2.8,0-5-1.7-5.5-4.1h14.3l0.1-1.7C176,48.2,171.9,44,166.6,44 M161.5,51.9
				c0.2-2.3,2.3-4.2,5.1-4.2c2.8,0,5,1.8,5.2,4.2H161.5z"/>
			<path class="st3" d="M187.5,44c-2.6,0-4.8,0.9-6.6,2.8c-1.8,1.8-2.7,4.1-2.7,6.6c0,5.3,4.2,9.5,9.8,9.5c3.1,0,6.2-1.4,7.9-3.7
				l-3.2-2c-1.2,1.3-2.8,2-4.8,2c-2.8,0-5-1.7-5.5-4.1h14.3l0.1-1.7C196.9,48.2,192.7,44,187.5,44 M182.4,51.9
				c0.2-2.3,2.3-4.2,5.1-4.2c2.8,0,5,1.8,5.2,4.2H182.4L182.4,51.9z"/>
			<path class="st3" d="M209.4,44c-2.5,0-4.4,1.3-5.5,3.2l-0.2-3H200v18.4h4v-9.4c0-3.6,1.8-5.4,4.4-5.4s4.4,1.8,4.4,5.4v9.4h4v-9.4
				C216.7,47.1,213.8,44,209.4,44z"/>
			<path class="st3" d="M119,8.1c1-1,1-2.4,0-3.4c-0.5-0.5-1.1-0.7-1.7-0.7c-1.3,0-2.4,1.1-2.4,2.4C114.9,8.6,117.5,9.6,119,8.1"/>
			<path class="st3" d="M141.9,32.9c0,1.3,1.1,2.4,2.4,2.4c1.3,0,2.4-1.1,2.4-2.4c0-1.3-1.1-2.4-2.4-2.4
				C142.9,30.5,141.9,31.5,141.9,32.9z"/>
			<path class="st3" d="M149.6,30.5c-1.3,0-2.4,1.1-2.4,2.4c0,1.3,1.1,2.4,2.4,2.4s2.4-1.1,2.4-2.4C152.1,31.6,151,30.5,149.6,30.5z
				"/>
			<path class="st3" d="M207,3.3c0-4.3-6.6-4.4-6.6-0.2c0,1,0.4,1.7,1.1,2.3L198.4,6v2l5.9-1.3C205.9,6.3,207,5,207,3.3 M202.9,4
				c-0.9-0.9,0-2,0.8-1.9c0.6,0,1.1,0.5,1.1,1.1C204.8,4.1,203.7,4.8,202.9,4z"/>
			<path class="st3" d="M117.3,35.5c4.9,0,9-3,9.5-8.4c0.6,0.7,1.4,1.1,2.5,1.1h13.1c1.8,0,3.4-0.6,4.5-1.7c1.1,1.1,2.6,1.7,4.5,1.7
				h41.3h15.5c4.8,0,8.8-3.9,8.8-8.8c0-2.4-1-4.7-2.6-6.3c-1.6-1.6-3.8-2.6-6.2-2.6c-4.8,0-8.8,3.9-8.8,8.8V24h-14
				c2.9-3.2,5-4.7,5-8.5c0-3.4-2.7-5-6.9-5h-13.5v6.2L175,24h-23.6c-1.6,0-2.4-1-2.4-3.1V10.5h-4.1v10.4c0,2.1-0.8,3.1-2.4,3.1
				l-12.3,0l-0.9,0c-1.6,0-2.4-1-2.4-3.1V10.5h-4.1v15.4c0,3.7-2.4,5.5-5.5,5.5c-3.1,0-5.5-1.8-5.5-5.5V14h-4.1v11.9
				C107.7,31.9,111.9,35.5,117.3,35.5 M203.5,19.4c0-1.2,0.5-2.4,1.4-3.4c1.4-1.4,3.2-1.7,5.5-1c1.8,0.6,2.7,2.4,2.5,4.3
				c0,0.1,0,0.1,0,0.2c0,1.2-0.5,2.4-1.3,3.2c-0.8,0.8-2,1.3-3.2,1.3h-5V19.4z M174.9,16.6v-2h7.1c2.6,0,3.8,0.5,3.8,2.3
				c0,0.6-0.2,1.2-0.7,2c-0.2,0.4-0.8,1.1-1.2,1.5c-0.3,0.4-1.1,1.3-1.5,1.7c-0.3,0.3-0.9,0.9-1.8,1.9h-0.9L174.9,16.6z"/>
			<path class="st4" d="M74,28.9C74,28.9,74,28.9,74,28.9c0.1-0.1,0.1-0.1,0.2-0.2l0,0c4.6-4.5,8.8-7.8,8.8-14.8
				C83,6.3,76.9,2.2,70.6,2c0,0-0.1,0-0.1,0c-6.3,0.2-12.4,4.3-12.4,11.9c0,7,4.1,10.3,8.8,14.8c0.1,0.1,0.2,0.2,0.3,0.2
				c0,0,0,0,0,0c0,0,0.1,0.1,0.1,0.1c-4.6,4.1-9.6,8.7-13.3,14.7c-4-6.3-9.7-10.8-14.7-14.8c0,0,0,0,0,0c0.1-0.1,0.2-0.1,0.2-0.2
				l0,0c4.6-4.5,8.8-7.8,8.8-14.8c0-7.6-6.1-11.6-12.4-11.9c0,0-0.1,0-0.1,0c-6.3,0.2-12.4,4.3-12.4,11.9c0,7,4.1,10.3,8.8,14.8
				c0.1,0.1,0.2,0.2,0.3,0.2c0,0,0,0,0,0c0,0,0.1,0.1,0.1,0.1c-4.1,3.7-8.6,7.9-12.2,13c-2.4-4.5-6.1-9-11.8-13.2L0,35.2
				C11.6,46.2,9.9,63,9.9,63h3.8h5.6h5.2c0-5.2-0.4-10.3-1.9-15.3c3.2-6.9,8.4-11.8,13.2-15.9c7.8,6.7,9,15.3,9,31.2h14.5
				c0-5.4-1-9.9-2.5-13.8c3.2-7.7,8.7-13,13.9-17.4c7.8,6.7,9,15.3,9,31.2h14.5C94.1,44.8,83,36.1,74,28.9 M38.4,23.7
				c-0.8,0.8-1.7,1.6-2.7,2.4c-1-0.8-1.9-1.6-2.7-2.4l-0.1-0.1c-2.9-2.9-4.8-5.9-4.8-9.6c0-4.7,3.7-7,7.6-7.2
				c3.9,0.2,7.6,2.5,7.6,7.2c0,3.7-1.9,6.7-4.8,9.6C38.5,23.6,38.5,23.6,38.4,23.7z M73.2,23.7c-0.8,0.8-1.7,1.6-2.7,2.4
				c-1-0.8-1.9-1.6-2.7-2.4l-0.2-0.1c-2.9-2.9-4.8-5.9-4.8-9.6c0-4.7,3.7-7,7.6-7.2c3.9,0.2,7.6,2.5,7.6,7.2c0,3.7-1.9,6.7-4.8,9.6
				C73.3,23.6,73.3,23.6,73.2,23.7z"/>
		</g>
	</g>
</g>
</svg>
